<svg xmlns="http://www.w3.org/2000/svg" xmlns:xlink="http://www.w3.org/1999/xlink" x="0px" y="0px" viewBox="0 0 560 560" fill="#FFFFFF">
	<style type="text/css">
		.path {
			stroke-dasharray: 1;
			stroke-dashoffset: 1;
			animation: dash 2s ease 0.2s forwards;
		}
		@keyframes dash {
			from { stroke-dashoffset: 1; }
			to { stroke-dashoffset: 0; }
		}
	</style>
	<path mask="url(#mask1)" d="M560,280c-11.6,1.6-23.3,3-35,4.1c-11.7,1.2-23.3,2.1-35,3c-23.4,1.7-46.8,2.8-70.2,3.5c-46.8,1.4-93.7,0.6-140.4-1.3
		l-69.8-2.9c-11.6-0.5-23.2-0.8-34.8-1.3c-5.8-0.2-11.6-0.4-17.4-0.5c-5.8-0.2-11.6-0.4-17.4-0.5c-23.3-0.7-46.5-1.3-69.9-1.9l-35-1
		C23.4,281,11.7,280.5,0,280c11.5-2.2,23.1-4.1,34.8-5.7c11.6-1.7,23.3-3.1,34.9-4.3c23.3-2.5,46.7-4.3,70.1-5.5
		c11.7-0.6,23.4-1.1,35.2-1.3c11.7-0.3,23.5-0.4,35.2-0.4c5.9,0,11.7,0.1,17.6,0.2l17.6,0.3c11.7,0.3,23.4,0.7,35.1,1.1
		c46.7,1.9,93.1,4.3,139.6,6.6c23.3,1.2,46.6,2.5,69.9,3.9c11.7,0.7,23.3,1.4,35,2.3C536.6,278,548.3,278.9,560,280z"/>
  <mask id="mask1">
		<line class="path" x1="0" y1="280" x2="560" y2="280" fill="none" stroke="#FFF" stroke-width="50" stroke-linecap="round" stroke-dasharray="1" stroke-dashoffset="0" pathLength="1"/>
	</mask>
</svg>
