<svg xmlns="http://www.w3.org/2000/svg" xmlns:xlink="http://www.w3.org/1999/xlink" x="0px" y="0px" viewBox="0 0 560 560" fill="#FFFFFF">
	<style>
		.path {
			stroke-dasharray: 1;
			stroke-dashoffset: 1;
			animation: dash 2s ease forwards;
		}
		@keyframes dash {
			from { stroke-dashoffset: 1; }
			to { stroke-dashoffset: 0; }
		}
	</style>
	<path mask="url(#mask)" d="M351.5,38.8c-8.5-1.8-17.1-2.9-25.7-3.7c-8.6-0.8-17.3-1.3-26-1.4c-8.7-0.1-17.3,0.2-25.9,0.8c-8.6,0.7-17.2,1.7-25.7,3.1
		c-4.2,0.8-8.5,1.5-12.7,2.4c-2.1,0.5-4.2,0.9-6.3,1.4l-6.2,1.6c-8.3,2.3-16.5,4.8-24.5,7.9c-8,2.9-15.8,6.5-23.5,10.3l-5.6,3
		c-1.9,1-3.8,2-5.6,3.1c-3.6,2.2-7.4,4.3-10.9,6.7c-14.3,9.3-27.4,20.2-39.4,32.1c-11.9,12.1-22.6,25.4-31.9,39.6
		C63,174,50.2,205.9,45,238.9c-1.3,8.3-2.2,16.5-2.6,24.9c-0.3,8.3-0.4,16.7,0.2,25c0.2,4.2,0.7,8.3,1,12.4l0.8,6.2l0.4,3.1l0.5,3.1
		c1.3,8.2,3.3,16.3,5.6,24.2c2.3,8,5,15.8,8.2,23.4c3.2,7.7,6.7,15.2,10.6,22.5c7.9,14.6,17.2,28.4,27.7,41.2
		c5.3,6.4,10.8,12.6,16.6,18.4c2.9,2.9,5.9,5.7,8.9,8.5c3.1,2.7,6.2,5.4,9.4,8c3.2,2.6,6.5,5,9.8,7.5l5,3.5c1.7,1.2,3.4,2.3,5.1,3.4
		c6.9,4.4,14,8.5,21.3,12.2c14.6,7.3,30,13.1,45.8,17.3c15.8,4.2,32.1,6.8,48.3,7.7c8.1,0.4,16,0.4,24-0.1c8-0.6,16.1-1.6,24.1-3
		c16-2.9,31.8-7.4,46.8-13.3c30.1-11.9,57.2-30.1,79.1-53.1c22.1-23.1,39.8-50.6,51.2-79.9c5.6-14.7,9.8-29.9,11.9-45.3
		c1.1-7.7,1.8-15.5,2-23.3c0.1-2,0-3.9,0.1-5.9c0-2,0-3.9-0.1-5.9l-0.3-5.9c-0.1-1.9-0.3-3.8-0.5-5.8c-0.7-7.7-1.9-15.6-3.6-23.4
		c-1.6-7.8-3.8-15.5-6.2-23.1c-4.9-15.2-11.5-29.8-19.7-43.4c-8.2-13.6-18-26.2-29.4-37.5c-11.4-11.2-24.2-21.2-38.2-29.4
		c-27.9-16.6-60.3-26.4-93.8-29.2c-8.4-0.7-16.8-0.9-25.3-0.8c-2.1,0.1-4.2,0.1-6.4,0.2l-6.4,0.4c-4.2,0.4-8.5,0.7-12.7,1.2
		c-8.5,1.1-17,2.4-25.4,4.3c-8.4,1.9-16.8,4.1-25.2,6.7l0,0c-1.2,0.4-2.5-0.3-2.8-1.5c-0.3-1.1,0.2-2.2,1.1-2.7
		c7.8-4.2,15.9-8,24.2-11.4c8.3-3.4,16.8-6.2,25.5-8.6c17.4-4.9,35.5-7.7,53.8-8.6c36.6-1.6,74.3,5.3,108.4,21.6
		c34.2,16,64.4,41.7,86.2,73.4c11,15.8,19.8,33,26.6,50.8c3.4,8.9,6.3,18.1,8.7,27.3c2.4,9.3,4.3,18.7,5.6,28.3
		c0.3,2.4,0.6,4.9,0.8,7.3l0.6,7.2c0.2,2.4,0.3,4.8,0.4,7.3c0.1,2.4,0.2,4.8,0.2,7.3l-0.1,7.3l-0.4,7.3c-0.1,2.4-0.4,4.8-0.6,7.3
		l-0.3,3.6l-0.5,3.6c-1.1,9.7-3,19.2-5.4,28.6c-2.4,9.4-5.4,18.6-8.9,27.6c-14.1,36-36.2,68.1-63.5,94.6
		c-13.9,13.2-29.1,25-45.4,34.9c-8.2,4.9-16.6,9.4-25.2,13.4c-8.6,4-17.4,7.5-26.3,10.6c-17.8,6.2-36.2,10.6-54.8,13.2
		c-9.3,1.3-18.7,2.2-28.1,2.5c-9.5,0.4-19.2,0.1-28.5-0.7c-18.8-1.6-37.2-5.2-55.1-10.5c-17.9-5.3-35.3-12.5-51.8-21.4
		c-8.2-4.5-16.2-9.4-23.9-14.7c-1.9-1.3-3.9-2.6-5.7-4l-5.6-4.2c-3.7-2.9-7.3-5.8-10.8-8.8c-3.6-3-7-6.2-10.4-9.3
		c-3.4-3.2-6.7-6.6-9.9-9.9c-6.4-6.8-12.3-13.9-18-21.2c-11.2-14.7-21-30.4-29.2-47c-4.1-8.3-7.7-16.8-11-25.5
		c-3.2-8.7-6-17.5-8.2-26.5c-2.2-9-4.1-18.1-5.3-27.2l-0.5-3.4l-0.4-3.4c-0.2-2.3-0.5-4.6-0.7-6.9c-0.3-4.6-0.7-9.2-0.7-13.8
		c-0.3-9.2,0.1-18.4,0.8-27.6c0.8-9.2,2.1-18.3,3.8-27.3c7.2-36.1,22.6-70.1,43.7-99.6c10.6-14.7,22.5-28.4,35.7-40.8
		c3.3-3.1,6.7-6.1,10.2-9c3.5-2.9,6.9-5.8,10.6-8.4l5.5-4c1.8-1.3,3.7-2.5,5.6-3.8c1.9-1.2,3.7-2.5,5.7-3.7l5.8-3.5
		c3.8-2.4,7.9-4.4,11.8-6.6c2-1.1,4-2,6.1-3l6.1-2.9c8.3-3.6,16.6-7,25.1-9.7c8.5-2.9,17.2-5.1,25.9-7.1l6.6-1.4
		c2.2-0.5,4.4-0.8,6.6-1.2c4.4-0.8,8.8-1.3,13.2-1.9c8.9-1,17.7-1.7,26.6-2c8.9-0.2,17.8-0.1,26.6,0.4c8.9,0.5,17.7,1.4,26.4,2.6
		c8.8,1.3,17.5,2.9,26.1,5.2c1.2,0.3,1.9,1.6,1.6,2.8C353.9,38.4,352.7,39.1,351.5,38.8L351.5,38.8z"/>
  <mask id="mask">
		<path class="path" d="M352.1,36.6c-13-3.1-139.3-31.1-237.4,57.2c-17.1,15.4-82.2,78.3-84.6,179.8c-2.5,107.1,66.7,175,82.2,189.4
			c70.1,65,152,67,169.9,67c15.3,0,110.3-1.6,182.1-79.1c14.6-15.8,73-81,65.1-177.2c-1.2-14.7-9.3-95.1-77.3-151.3
			c-64.3-53.1-156.8-63.6-238.9-28.6" fill="none" stroke="#FFF" stroke-width="50" stroke-linecap="round" stroke-dasharray="1" stroke-dashoffset="0" pathLength="1"/>
	</mask>
</svg>
