<svg xmlns="http://www.w3.org/2000/svg" xmlns:xlink="http://www.w3.org/1999/xlink" x="0px" y="0px" viewBox="0 0 560 560" fill="#FFFFFF">
	<style>
		.path {
			stroke-dasharray: 1;
			stroke-dashoffset: 1;
			animation: dash 1.2s ease forwards;
		}
		.delay {
			animation-delay: 0.5s;
		}
		@keyframes dash {
			from { stroke-dashoffset: 1; }
			to { stroke-dashoffset: 0; }
		}
	</style>
	<path mask="url(#mask1)" d="M528,551.5l-13.6-16.1c-4.5-5.4-9.1-10.7-13.7-16l-6.8-8l-6.9-8c-4.6-5.3-9.2-10.6-13.8-15.9
		c-18.5-21.1-37.2-42-56.2-62.6c-38-41.2-76.7-81.5-116.4-120.8c-9.8-9.9-20.2-19.3-30.4-28.9l-15.6-14l-7.8-7l-7.8-6.9
		c-5.2-4.7-10.3-9.3-15.4-14.1c-5.1-4.7-10.2-9.5-15.2-14.3c-10-9.7-19.8-19.6-29.4-29.7c-19.3-20.2-38.3-40.7-56.8-61.8
		c-9.3-10.6-18.5-21.3-27.5-32.2c-4.5-5.5-9-11-13.4-16.7c-4.4-5.6-8.8-11.3-13-17.3l0,0c-0.8-1.2-0.5-2.8,0.6-3.6
		c0.8-0.5,1.8-0.6,2.6-0.2c6.6,3.1,13,6.4,19.3,9.8c6.3,3.4,12.5,7,18.7,10.7c12.3,7.3,24.3,15.1,36,23.1
		c23.5,16.1,46,33.5,67.6,51.9c10.8,9.2,21.3,18.7,31.4,28.7c5.1,5,10.1,10,15,15.1c4.9,5.2,9.6,10.4,14.4,15.7
		c9.5,10.5,18.7,21.4,28,32.1l13.8,16.2l7,8l6.9,8.1c18.7,21.3,36.7,43.1,54.6,65c8.8,11.1,17.6,22.1,26.3,33.3
		c8.7,11.2,17.1,22.5,25.6,33.8l12.5,17.1l6.2,8.6l6.2,8.6c8.2,11.5,16.4,23,24.4,34.6c4,5.8,7.9,11.7,11.9,17.5l5.9,8.8l5.8,8.8
		c7.8,11.8,15.4,23.6,22.9,35.5c0.7,1.2,0.4,2.7-0.8,3.4C530.2,552.7,528.8,552.5,528,551.5L528,551.5z"/>
	<path mask="url(#mask2)" d="M508.9,12.2c-11.8,9.9-23.7,19.2-35.5,28.3c-11.7,9.3-23.3,18.2-34.7,27.4c-22.9,18.1-45.1,36.3-66.8,54.7
		c-43.3,36.9-84.5,74.7-123.2,115l-7.3,7.5l-3.7,3.8l-3.5,3.9c-4.8,5.1-9.5,10.3-14.3,15.3c-4.8,5.1-9.3,10.5-14,15.6
		c-4.8,5.1-9.2,10.5-13.9,15.8c-4.6,5.3-9.3,10.5-13.7,16c-2.3,2.7-4.5,5.4-6.8,8.1c-2.3,2.7-4.6,5.3-6.8,8.1
		c-4.4,5.5-9,10.9-13.5,16.4c-4.4,5.5-8.8,11.1-13.3,16.6c-17.6,22.3-35.1,45.1-52.4,68.6C81.1,439,77,445,72.5,450.9l-6.5,9
		c-2.1,3-4.5,5.9-6.6,9c-8.8,12-17.5,24.2-27.1,36.4l-0.5,0.6c-0.8,1.1-2.4,1.2-3.4,0.4c-0.8-0.7-1.1-1.8-0.8-2.7
		c9.9-27.9,21-55.4,33.8-82.1c12.8-26.7,27.1-52.8,42.6-78l11.9-18.8c4.1-6.2,8.3-12.3,12.5-18.4c2.1-3.1,4.3-6.1,6.4-9.1l6.5-9
		l3.3-4.5c1.1-1.5,2.2-3,3.3-4.5l6.8-8.8l6.8-8.8l1.7-2.2l1.8-2.1l3.6-4.3l7.1-8.6l3.6-4.3c1.2-1.4,2.4-2.9,3.6-4.2l14.8-16.6
		l3.7-4.1l3.8-4l7.7-8c20.7-21.3,42.3-41.6,65.2-60.5l4.2-3.6l4.3-3.5l8.7-6.9l4.3-3.5l2.2-1.7l2.2-1.7l8.9-6.7l8.9-6.7l9.1-6.4
		l9.1-6.4c3.1-2.1,6.2-4.1,9.3-6.2c24.7-16.4,50.3-31.5,76.5-45.2c6.5-3.5,13.2-6.6,19.9-9.9c3.3-1.7,6.7-3.2,10-4.7
		c3.4-1.5,6.7-3.2,10.1-4.7C479.6,18.8,493.2,13,507,7.6c1.2-0.5,2.7,0.1,3.1,1.4c0.4,1,0.1,2.1-0.7,2.7L508.9,12.2z"/>
  <mask id="mask1">
		<path class="path" d="M69.9,59.4C118.1,99.4,167.2,143.1,216.8,190.8C343.8,313,446.8,436,530,550.1" fill="none" stroke="#FFF" stroke-width="50" stroke-linecap="round" stroke-dasharray="1" stroke-dashoffset="0" pathLength="1"/>
	</mask>
  <mask id="mask2">
		<path class="path delay" d="M507.9,9.9c-72.6,39-171.3,102.3-269.2,201.7C133.1,318.8,68.4,427.2,30,504.4" fill="none" stroke="#FFF" stroke-width="50" stroke-linecap="round" stroke-dasharray="1" stroke-dashoffset="0" pathLength="1"/>
	</mask>
</svg>

